<?xml version="1.0" encoding="utf-8"?><!DOCTYPE svg PUBLIC "-//W3C//DTD SVG 1.1//EN" "http://www.w3.org/Graphics/SVG/1.1/DTD/svg11.dtd"><svg version="1.1" baseProfile="full" xmlns="http://www.w3.org/2000/svg" xmlns:xlink="http://www.w3.org/1999/xlink" xmlns:ev="http://www.w3.org/2001/xml-events"   height="13px"   width="18px" ><path fill="rgb( 53, 53, 53 )" d="M0,12.999 C0,12.999 18,12.999 18,12.999 C18,12.999 18,10.999 18,10.999 C18,10.999 0,10.999 0,10.999 C0,10.999 0,12.999 0,12.999 ZM0,7.999 C0,7.999 18,7.999 18,7.999 C18,7.999 18,5.999 18,5.999 C18,5.999 0,5.999 0,5.999 C0,5.999 0,7.999 0,7.999 ZM0,0.999 C0,0.999 0,2.999 0,2.999 C0,2.999 18,2.999 18,2.999 C18,2.999 18,0.999 18,0.999 C18,0.999 0,0.999 0,0.999 Z "/></svg>