<?xml version="1.0" encoding="UTF-8"?><!DOCTYPE svg PUBLIC "-//W3C//DTD SVG 1.1//EN" "http://www.w3.org/Graphics/SVG/1.1/DTD/svg11.dtd"><svg xmlns="http://www.w3.org/2000/svg"><symbol id="icon-arr-left" viewBox="0 0 12 14">
    <path fill-rule="evenodd" d="M4.6.54L.19 6.15c-.25.32-.25.82 0 1.13L4.6 12.9c.14.18.34.29.57.31.22.02.43-.05.61-.2.19-.17.3-.42.3-.68 0-.2-.07-.4-.2-.56L2.6 7.6l8.56.01c.46 0 .84-.4.84-.89 0-.48-.37-.88-.84-.88l-8.55-.01 3.27-4.16a.916.916 0 0 0-.1-1.25.822.822 0 0 0-.61-.2.81.81 0 0 0-.57.32z"/>
</symbol><symbol id="icon-arr-right" viewBox="0 0 12 13">
    <path fill-rule="evenodd" d="M7.4 12.69l4.42-5.62a.96.96 0 0 0 0-1.13L7.4.32A.81.81 0 0 0 6.83 0a.809.809 0 0 0-.61.2.916.916 0 0 0-.1 1.25L9.4 5.62.84 5.61c-.46 0-.84.4-.84.89 0 .48.38.88.84.88l8.55.01-3.27 4.17c-.13.15-.2.35-.2.56 0 .26.11.51.3.68.17.15.39.22.61.2.23-.02.43-.13.57-.31z"/>
</symbol><symbol id="icon-clock" viewBox="0 0 30 29">
    <path opacity=".28" fill-rule="evenodd" d="M15 29C6.99 29 .5 22.51.5 14.5S6.99 0 15 0s14.5 6.49 14.5 14.5S23.01 29 15 29zm.52-26.4v3.1h-1.73V2.6C8.61 3.02 3.52 8.11 3.1 13.98h2.06v1.73H3.1c.42 5.18 5.51 10.27 10.69 10.69v-2.06h1.73v2.06c5.87-.42 10.96-5.51 11.38-10.69h-3.1v-1.73h3.1C26.48 8.11 21.39 3.02 15.52 2.6zm1.04 11.97c0 .9-.73 1.64-1.63 1.64-.84 0-1.52-.64-1.62-1.45L9.28 9.42l5.11 3.61c.17-.05.35-.09.54-.09.03 0 .06 0 .09.01l7.76-6.34-6.25 7.62c.02.11.03.22.03.34z"/>
</symbol><symbol id="icon-menu-blog" viewBox="-15 20 18 12">
    <path d="M-10 27v-2H3v2h-13zm0-7H3v2h-13v-2zm-5 5h3v2h-3v-2zm0-5h3v2h-3v-2zm3 12h-3v-2h3v2zm15 0h-13v-2H3v2z"/>
</symbol><symbol id="icon-menu" viewBox="0 0 18 12">
    <path fill-rule="evenodd" d="M0 12h18v-2H0v2zm0-5h18V5H0v2zm0-7v2h18V0H0z"/>
</symbol><symbol id="icon-search" viewBox="-14.9 16.9 17.9 17.9">
    <path d="M2.7 33.2l-3.4-3.4c1.1-1.3 1.7-3 1.7-4.9 0-4.4-3.6-8-8-8s-8 3.6-8 8 3.6 8 8 8c1.9 0 3.6-.6 4.9-1.7l3.4 3.4c.2.2.4.3.7.3.2 0 .5-.1.7-.3.3-.4.3-1 0-1.4zM-7 31c-3.3 0-6.1-2.7-6.1-6.1 0-3.3 2.7-6.1 6.1-6.1 3.3 0 6.1 2.7 6.1 6.1C-.9 28.3-3.6 31-7 31z"/>
</symbol><symbol id="icon-star" viewBox="0 0 16 16">
    <path fill-rule="evenodd" d="M8.08.14C3.76.14.26 3.5.26 7.64c0 4.14 3.5 7.49 7.82 7.49s7.82-3.35 7.82-7.49c0-4.14-3.5-7.5-7.82-7.5zm2.91 11.42L8.08 10.1l-2.91 1.46.56-3.1-2.34-2.18 3.24-.46L8.08 3l1.45 2.82 3.24.46-2.34 2.18.56 3.1z"/>
</symbol></svg>