<?xml version="1.0" encoding="UTF-8"?><!DOCTYPE svg PUBLIC "-//W3C//DTD SVG 1.1//EN" "http://www.w3.org/Graphics/SVG/1.1/DTD/svg11.dtd"><svg xmlns="http://www.w3.org/2000/svg"><defs>
        <style>
            .cls-1{fill:#fff;fill-rule:evenodd}
        </style>
    </defs><symbol id="icon-arr-left" viewBox="0 0 12 14">
    <path fill-rule="evenodd" d="M4.6.54L.19 6.15c-.25.32-.25.82 0 1.13L4.6 12.9c.14.18.34.29.57.31.22.02.43-.05.61-.2.19-.17.3-.42.3-.68 0-.2-.07-.4-.2-.56L2.6 7.6l8.56.01c.46 0 .84-.4.84-.89 0-.48-.37-.88-.84-.88l-8.55-.01 3.27-4.16a.916.916 0 0 0-.1-1.25.822.822 0 0 0-.61-.2.81.81 0 0 0-.57.32z"/>
</symbol><symbol id="icon-arr-right" viewBox="0 0 12 13">
    <path fill-rule="evenodd" d="M7.4 12.69l4.42-5.62a.96.96 0 0 0 0-1.13L7.4.32A.81.81 0 0 0 6.83 0a.809.809 0 0 0-.61.2.916.916 0 0 0-.1 1.25L9.4 5.62.84 5.61c-.46 0-.84.4-.84.89 0 .48.38.88.84.88l8.55.01-3.27 4.17c-.13.15-.2.35-.2.56 0 .26.11.51.3.68.17.15.39.22.61.2.23-.02.43-.13.57-.31z"/>
</symbol><symbol id="icon-bell" viewBox="0 0 26 23">
    <path fill-rule="evenodd" d="M25.23 10.2l-.89.01a.29.29 0 0 1-.29-.29 9.637 9.637 0 0 0-5.69-8.43.29.29 0 0 1-.16-.38l.34-.82c.06-.15.24-.23.39-.16 3.88 1.71 6.46 5.53 6.59 9.77.01.16-.13.3-.29.3zm-2.66-.29c.01.17-.13.31-.3.31h-.88c-.16 0-.29-.12-.3-.28a6.65 6.65 0 0 0-3.85-5.71.306.306 0 0 1-.16-.39l.34-.82c.06-.15.24-.23.39-.16a8.154 8.154 0 0 1 4.76 7.05zM20 11.62v3.01l1.58 1.62c.14.14.22.33.22.53v2.29c0 .41-.34.74-.75.74h-4.96c0 1.64-1.45 3.09-3.09 3.09s-3.09-1.45-3.09-3.09H4.95c-.41 0-.75-.33-.75-.74v-2.29c0-.2.08-.39.22-.53L6 14.63v-3.01c0-2.99 1.77-5.56 4.42-6.6.27-1.2 1.32-2.1 2.58-2.1s2.31.9 2.58 2.1C18.23 6.06 20 8.63 20 11.62zm-7 9.79c.88 0 1.6-.83 1.6-1.6h-3.2c0 .77.72 1.6 1.6 1.6zm1.15-15.27v-.53c0-.64-.51-1.2-1.15-1.2-.64 0-1.15.56-1.15 1.2v.53c-2.57.54-4.36 2.77-4.36 5.48v3.61l-1.8 1.84v1.25h14.62v-1.25l-1.8-1.84v-3.61c0-2.71-1.79-4.94-4.36-5.48zm-9.24 3.8c-.01.16-.14.28-.3.28h-.88c-.17 0-.31-.14-.3-.31a8.154 8.154 0 0 1 4.76-7.05c.15-.07.33.01.39.16l.34.82c.06.15-.01.32-.16.39a6.65 6.65 0 0 0-3.85 5.71zm-2.96-.02c0 .16-.13.29-.29.29l-.89-.01c-.16 0-.3-.14-.3-.3.14-4.24 2.72-8.06 6.6-9.77.15-.07.33.01.39.16l.33.82c.07.15 0 .32-.15.38a9.637 9.637 0 0 0-5.69 8.43z"/>
</symbol><symbol id="icon-check" viewBox="0 0 32 32">
    <path clip-rule="evenodd" d="M27.704 8.397a1.016 1.016 0 0 0-1.428 0L11.988 22.59l-6.282-6.193a1.016 1.016 0 0 0-1.428 0 .994.994 0 0 0 0 1.414l6.999 6.899c.39.386 1.039.386 1.429 0L27.704 9.811a.992.992 0 0 0 0-1.414c-.394-.391.395.39 0 0z" fill-rule="evenodd"/>
</symbol><symbol id="icon-clock" viewBox="0 0 30 29">
    <path opacity=".28" fill-rule="evenodd" d="M15 29C6.99 29 .5 22.51.5 14.5S6.99 0 15 0s14.5 6.49 14.5 14.5S23.01 29 15 29zm.52-26.4v3.1h-1.73V2.6C8.61 3.02 3.52 8.11 3.1 13.98h2.06v1.73H3.1c.42 5.18 5.51 10.27 10.69 10.69v-2.06h1.73v2.06c5.87-.42 10.96-5.51 11.38-10.69h-3.1v-1.73h3.1C26.48 8.11 21.39 3.02 15.52 2.6zm1.04 11.97c0 .9-.73 1.64-1.63 1.64-.84 0-1.52-.64-1.62-1.45L9.28 9.42l5.11 3.61c.17-.05.35-.09.54-.09.03 0 .06 0 .09.01l7.76-6.34-6.25 7.62c.02.11.03.22.03.34z"/>
</symbol><symbol id="icon-close" viewBox="0 0 15.41 15.407">
    
    <path d="M15.408 14.213l-1.186 1.185-6.518-6.519-6.524 6.524-1.185-1.186 6.523-6.523L.004 1.18 1.19-.006l6.514 6.514 6.509-6.509 1.185 1.185-6.509 6.51 6.519 6.519z" class="cls-1"/>
</symbol><symbol id="icon-download" viewBox="0 0 32 27">
    <title>
        Download
    </title>
    <g fill-rule="evenodd">
        <path d="M31 25H1c-1 0-1 1-1 1a1 1 0 0 0 1 1h30a1 1 0 0 0 1-1s0-1-1-1z"/>
        <path d="M15.27 23.707c.389.385 1.04.389 1.429 0l6.999-6.9a.993.993 0 0 0 0-1.414 1.016 1.016 0 0 0-1.428 0l-5.275 5.2V1c0-.552-.452-1-1.01-1s-1.01.448-1.01 1v19.593l-5.275-5.2a1.016 1.016 0 0 0-1.428 0 .992.992 0 0 0 0 1.414l6.998 6.9z"/>
    </g>
</symbol><symbol id="icon-fb" viewBox="0 0 14 25">
    <path fill-rule="evenodd" d="M13.41 4.63h-1.92c-1.91 0-2.87.93-2.87 2.78v1.85h4.79l-.96 4.62H8.62v11.11h-4.8V13.88H-.01V9.26h3.83V6.48C3.82 2.67 6.05.01 9.57.01h3.84v4.62z"/>
</symbol><symbol id="icon-instagram" viewBox="0 0 35 35">
    <title>
        Slice 1
    </title>
    <path d="M9.767 12.23H.692v-1.153 18.077c0 5 5 5 5 5h23.462s5 0 5-5V11.077h-9.807a8.64 8.64 0 0 0-6.924-3.462 8.64 8.64 0 0 0-6.924 3.462H.692V5.692c0-3.156 1.992-4.32 3.462-4.749v6.672h1.154V.717c.24-.025.384-.025.384-.025h23.462s5 0 5 5v6.539h-9.075a8.654 8.654 0 1 1-15.311 0zM28.08 3a2.005 2.005 0 0 0-2.002 2.002v1.766c0 1.105.901 2.001 2.002 2.001h1.766a2.005 2.005 0 0 0 2.001-2.001V5.002A2.005 2.005 0 0 0 29.845 3h-1.766zM8.769.692v6.923h1.154V.692H8.77zm-2.307 0v6.923h1.153V.692H6.462zm10.961 22.5a6.923 6.923 0 1 0 0-13.846 6.923 6.923 0 0 0 0 13.846zm0-2.307a4.615 4.615 0 1 0 0-9.231 4.615 4.615 0 0 0 0 9.23z" fill-rule="evenodd"/>
</symbol><symbol id="icon-like" viewBox="0 0 20 18">
    <path fill-rule="evenodd" d="M0 18.01V6.72h4.17v11.29H0zm5.56 0V6.72c.83 0 1.4-.27 1.95-.84.56-.56 2.32-4.18 2.74-4.88.41-.71 1.13-1.12 1.82-.98.69.29 1.09 1.01.95 1.86-.27.7-.51 2.73-.51 3.43 0 .71.55 1.41 1.39 1.41h4.16c.84 0 1.39.57 1.39 1.41l-2.91 9.04c-.14.43-.7.84-1.25.84H5.56z"/>
</symbol><symbol id="icon-menu-blog" viewBox="-15 20 18 12">
    <path d="M-10 27v-2H3v2h-13zm0-7H3v2h-13v-2zm-5 5h3v2h-3v-2zm0-5h3v2h-3v-2zm3 12h-3v-2h3v2zm15 0h-13v-2H3v2z"/>
</symbol><symbol id="icon-menu" viewBox="0 0 18 12">
    <path fill-rule="evenodd" d="M0 12h18v-2H0v2zm0-5h18V5H0v2zm0-7v2h18V0H0z"/>
</symbol><symbol id="icon-right" viewBox="0 0 512 512">
    <g>
        <path d="M383 266.5c-2.6 0-5.3-1-7.3-3L121.7 18c-4.2-4-4.3-10.7-.3-14.9 4-4.2 10.7-4.3 14.9-.3l254 245.5c4.2 4 4.3 10.7.3 14.9-2.1 2.3-4.8 3.3-7.6 3.3z"/>
        <path d="M129 512c-2.8 0-5.5-1.1-7.6-3.2-4-4.2-3.9-10.9.3-14.9l254-245.5c4.2-4 10.9-3.9 14.9.3s3.9 10.9-.3 14.9L136.3 509c-2 2-4.7 3-7.3 3z"/>
    </g>
</symbol><symbol id="icon-search" viewBox="-14.9 16.9 17.9 17.9">
    <path d="M2.7 33.2l-3.4-3.4c1.1-1.3 1.7-3 1.7-4.9 0-4.4-3.6-8-8-8s-8 3.6-8 8 3.6 8 8 8c1.9 0 3.6-.6 4.9-1.7l3.4 3.4c.2.2.4.3.7.3.2 0 .5-.1.7-.3.3-.4.3-1 0-1.4zM-7 31c-3.3 0-6.1-2.7-6.1-6.1 0-3.3 2.7-6.1 6.1-6.1 3.3 0 6.1 2.7 6.1 6.1C-.9 28.3-3.6 31-7 31z"/>
</symbol><symbol id="icon-star-full" viewBox="0 0 24 24">
    <title/>
    <g fill-rule="evenodd">
        <path d="M11.985 18.136L5.187 23l2.35-8.012L1 9.562l7.95-.069L11.985 1l2.951 8.562H23l-6.567 5.478 2.35 7.96-6.798-4.864z"/>
    </g>
</symbol><symbol id="icon-star" viewBox="0 0 15 15">
    <path fill-rule="evenodd" d="M7.5 0C3.36 0 0 3.36 0 7.5 0 11.64 3.36 15 7.5 15c4.14 0 7.5-3.36 7.5-7.5C15 3.36 11.64 0 7.5 0zm2.79 11.43L7.5 9.96l-2.79 1.47.54-3.11L3 6.14l3.11-.46L7.5 2.86l1.39 2.82 3.11.46-2.25 2.18.54 3.11z"/>
</symbol><symbol id="icon-top" viewBox="0 0 20 11">
    <title>
        Expand_Less
    </title>
    <path d="M10.714.297a1.02 1.02 0 0 0-1.429 0L.286 9.273a1.008 1.008 0 1 0 1.428 1.426L10 2.436l8.285 8.264a1.012 1.012 0 0 0 1.429 0 1.008 1.008 0 0 0 0-1.426l-9-8.977z" fill-rule="evenodd"/>
</symbol><symbol id="icon-vk" viewBox="0 0 30 30">
    <path clip-rule="evenodd" d="M16 24c1 0 1-1.441 1-2 0-1 1-2 2-2s2.715 1.715 4 3c1 1 1 1 2 1h3s2-.076 2-2c0-.625-.685-1.685-3-4-2-2-3.026-.967 0-5 1.843-2.456 3.184-4.681 2.954-5.323C29.734 7.064 24.608 6.088 24 7c-2 3-2.367 3.735-3 5-1 2-1.099 3-2 3-.909 0-1-1.941-1-3 0-3.306.479-5.644-1-6h-3c-1.61 0-3 1-3 1s-1.241.968-1 1c.298.04 2-.414 2 1v2s.009 4-1 4c-1 0-3-4-5-7-.785-1.177-1-1-2-1-1.072 0-1.999.042-3 .042-1 0-1.128.637-1 .958 2 5 3.437 8.14 7.237 12.096C10.722 23.725 13.05 23.918 15 24c.5.021 0 0 1 0z" fill-rule="evenodd"/>
</symbol></svg>