<?xml version="1.0" encoding="UTF-8"?><!DOCTYPE svg PUBLIC "-//W3C//DTD SVG 1.1//EN" "http://www.w3.org/Graphics/SVG/1.1/DTD/svg11.dtd"><svg xmlns="http://www.w3.org/2000/svg"><defs>
        <style>
            .cls-1{fill:#fff;fill-rule:evenodd}
        </style>
    </defs><symbol id="icon-arr-left" viewBox="0 0 12 14">
    <path fill-rule="evenodd" d="M4.6.54L.19 6.15c-.25.32-.25.82 0 1.13L4.6 12.9c.14.18.34.29.57.31.22.02.43-.05.61-.2.19-.17.3-.42.3-.68 0-.2-.07-.4-.2-.56L2.6 7.6l8.56.01c.46 0 .84-.4.84-.89 0-.48-.37-.88-.84-.88l-8.55-.01 3.27-4.16a.916.916 0 0 0-.1-1.25.822.822 0 0 0-.61-.2.81.81 0 0 0-.57.32z"/>
</symbol><symbol id="icon-arr-right" viewBox="0 0 12 13">
    <path fill-rule="evenodd" d="M7.4 12.69l4.42-5.62a.96.96 0 0 0 0-1.13L7.4.32A.81.81 0 0 0 6.83 0a.809.809 0 0 0-.61.2.916.916 0 0 0-.1 1.25L9.4 5.62.84 5.61c-.46 0-.84.4-.84.89 0 .48.38.88.84.88l8.55.01-3.27 4.17c-.13.15-.2.35-.2.56 0 .26.11.51.3.68.17.15.39.22.61.2.23-.02.43-.13.57-.31z"/>
</symbol><symbol id="icon-clock" viewBox="0 0 30 29">
    <path opacity=".28" fill-rule="evenodd" d="M15 29C6.99 29 .5 22.51.5 14.5S6.99 0 15 0s14.5 6.49 14.5 14.5S23.01 29 15 29zm.52-26.4v3.1h-1.73V2.6C8.61 3.02 3.52 8.11 3.1 13.98h2.06v1.73H3.1c.42 5.18 5.51 10.27 10.69 10.69v-2.06h1.73v2.06c5.87-.42 10.96-5.51 11.38-10.69h-3.1v-1.73h3.1C26.48 8.11 21.39 3.02 15.52 2.6zm1.04 11.97c0 .9-.73 1.64-1.63 1.64-.84 0-1.52-.64-1.62-1.45L9.28 9.42l5.11 3.61c.17-.05.35-.09.54-.09.03 0 .06 0 .09.01l7.76-6.34-6.25 7.62c.02.11.03.22.03.34z"/>
</symbol><symbol id="icon-close" viewBox="0 0 15.41 15.407">
    
    <path d="M15.408 14.213l-1.186 1.185-6.518-6.519-6.524 6.524-1.185-1.186 6.523-6.523L.004 1.18 1.19-.006l6.514 6.514 6.509-6.509 1.185 1.185-6.509 6.51 6.519 6.519z" class="cls-1"/>
</symbol><symbol id="icon-fb" viewBox="0 0 14 25">
    <path fill-rule="evenodd" d="M13.41 4.63h-1.92c-1.91 0-2.87.93-2.87 2.78v1.85h4.79l-.96 4.62H8.62v11.11h-4.8V13.88H-.01V9.26h3.83V6.48C3.82 2.67 6.05.01 9.57.01h3.84v4.62z"/>
</symbol><symbol id="icon-instagram" viewBox="0 0 35 35">
    <title>
        Slice 1
    </title>
    <path d="M9.767 12.23H.692v-1.153 18.077c0 5 5 5 5 5h23.462s5 0 5-5V11.077h-9.807a8.64 8.64 0 0 0-6.924-3.462 8.64 8.64 0 0 0-6.924 3.462H.692V5.692c0-3.156 1.992-4.32 3.462-4.749v6.672h1.154V.717c.24-.025.384-.025.384-.025h23.462s5 0 5 5v6.539h-9.075a8.654 8.654 0 1 1-15.311 0zM28.08 3a2.005 2.005 0 0 0-2.002 2.002v1.766c0 1.105.901 2.001 2.002 2.001h1.766a2.005 2.005 0 0 0 2.001-2.001V5.002A2.005 2.005 0 0 0 29.845 3h-1.766zM8.769.692v6.923h1.154V.692H8.77zm-2.307 0v6.923h1.153V.692H6.462zm10.961 22.5a6.923 6.923 0 1 0 0-13.846 6.923 6.923 0 0 0 0 13.846zm0-2.307a4.615 4.615 0 1 0 0-9.231 4.615 4.615 0 0 0 0 9.23z" fill-rule="evenodd"/>
</symbol><symbol id="icon-menu-blog" viewBox="-15 20 18 12">
    <path d="M-10 27v-2H3v2h-13zm0-7H3v2h-13v-2zm-5 5h3v2h-3v-2zm0-5h3v2h-3v-2zm3 12h-3v-2h3v2zm15 0h-13v-2H3v2z"/>
</symbol><symbol id="icon-menu" viewBox="0 0 18 12">
    <path fill-rule="evenodd" d="M0 12h18v-2H0v2zm0-5h18V5H0v2zm0-7v2h18V0H0z"/>
</symbol><symbol id="icon-search" viewBox="-14.9 16.9 17.9 17.9">
    <path d="M2.7 33.2l-3.4-3.4c1.1-1.3 1.7-3 1.7-4.9 0-4.4-3.6-8-8-8s-8 3.6-8 8 3.6 8 8 8c1.9 0 3.6-.6 4.9-1.7l3.4 3.4c.2.2.4.3.7.3.2 0 .5-.1.7-.3.3-.4.3-1 0-1.4zM-7 31c-3.3 0-6.1-2.7-6.1-6.1 0-3.3 2.7-6.1 6.1-6.1 3.3 0 6.1 2.7 6.1 6.1C-.9 28.3-3.6 31-7 31z"/>
</symbol><symbol id="icon-star" viewBox="0 0 15 15">
    <path fill-rule="evenodd" d="M7.5 0C3.36 0 0 3.36 0 7.5 0 11.64 3.36 15 7.5 15c4.14 0 7.5-3.36 7.5-7.5C15 3.36 11.64 0 7.5 0zm2.79 11.43L7.5 9.96l-2.79 1.47.54-3.11L3 6.14l3.11-.46L7.5 2.86l1.39 2.82 3.11.46-2.25 2.18.54 3.11z"/>
</symbol><symbol id="icon-vk" viewBox="0 0 30 30">
    <path clip-rule="evenodd" d="M16 24c1 0 1-1.441 1-2 0-1 1-2 2-2s2.715 1.715 4 3c1 1 1 1 2 1h3s2-.076 2-2c0-.625-.685-1.685-3-4-2-2-3.026-.967 0-5 1.843-2.456 3.184-4.681 2.954-5.323C29.734 7.064 24.608 6.088 24 7c-2 3-2.367 3.735-3 5-1 2-1.099 3-2 3-.909 0-1-1.941-1-3 0-3.306.479-5.644-1-6h-3c-1.61 0-3 1-3 1s-1.241.968-1 1c.298.04 2-.414 2 1v2s.009 4-1 4c-1 0-3-4-5-7-.785-1.177-1-1-2-1-1.072 0-1.999.042-3 .042-1 0-1.128.637-1 .958 2 5 3.437 8.14 7.237 12.096C10.722 23.725 13.05 23.918 15 24c.5.021 0 0 1 0z" fill-rule="evenodd"/>
</symbol></svg>