<?xml version="1.0" encoding="utf-8"?>
<!-- Generator: Avocode 2.6.0 - http://avocode.com -->
<svg height="16" width="16" xmlns:xlink="http://www.w3.org/1999/xlink" xmlns="http://www.w3.org/2000/svg" viewBox="0 0 16 16">
    <path fill="#000" fill-rule="evenodd" d="M 8.08 0.14 C 3.76 0.14 0.26 3.5 0.26 7.64 C 0.26 11.78 3.76 15.13 8.08 15.13 C 12.4 15.13 15.9 11.78 15.9 7.64 C 15.9 3.5 12.4 0.14 8.08 0.14 Z M 10.99 11.56 C 10.99 11.56 8.08 10.1 8.08 10.1 C 8.08 10.1 5.17 11.56 5.17 11.56 C 5.17 11.56 5.73 8.46 5.73 8.46 C 5.73 8.46 3.39 6.28 3.39 6.28 C 3.39 6.28 6.63 5.82 6.63 5.82 C 6.63 5.82 8.08 3 8.08 3 C 8.08 3 9.53 5.82 9.53 5.82 C 9.53 5.82 12.77 6.28 12.77 6.28 C 12.77 6.28 10.43 8.46 10.43 8.46 C 10.43 8.46 10.99 11.56 10.99 11.56 Z" />
</svg>